<?xml version="1.0" encoding="UTF-8"?>
<svg width="16px" height="16px" viewBox="0 0 16 16" version="1.1" xmlns="http://www.w3.org/2000/svg" xmlns:xlink="http://www.w3.org/1999/xlink">
    <!-- Generator: Sketch 52.5 (67469) - http://www.bohemiancoding.com/sketch -->
    <title>index_icon_data</title>
    <desc>Created with Sketch.</desc>
    <g id="Page-1" stroke="none" stroke-width="1" fill="none" fill-rule="evenodd" fill-opacity="0.65">
        <g id="Desktop-HD" transform="translate(-143.000000, -356.000000)" fill="#000000" fill-rule="nonzero">
            <g id="index_icon_data" transform="translate(143.000000, 356.000000)">
                <rect id="Rectangle-path" opacity="0" x="0" y="0" width="16" height="16"></rect>
                <path d="M9.6915,12.5965 C9.43975356,12.566842 9.25003344,12.3534874 9.25,12.1 L9.25,10.8385 C9.2499338,10.6782036 9.32672613,10.527594 9.4565,10.4335 C10.2825,9.8355 11.006,8.876 11.4055,7.7905 C11.457306,7.64964298 11.5696448,7.53950692 11.7115,7.4905 C11.864,7.438 12.048,7.112 12.218,6.3855 C12.3105,5.9925 12.202,5.7455 11.959,5.598 C11.823277,5.51560071 11.734758,5.37363627 11.7205,5.2155 C11.507,2.833 10.1585,1.5 8.035,1.5 C5.875,1.5 4.4735,2.876 4.2745,5.288 C4.26132973,5.44583884 4.17415338,5.58810322 4.0395,5.6715 C3.783,5.8315 3.6915,6.0365 3.786,6.3595 C3.964,6.967 4.1585,7.3025 4.361,7.4295 C4.45617214,7.48935798 4.52839249,7.57954534 4.566,7.6855 C4.958,8.787 5.6945,9.772 6.546,10.3965 C6.6742599,10.490713 6.75000987,10.6403564 6.75,10.7995 L6.75,12.1 C6.74996656,12.3534874 6.56024644,12.566842 6.3085,12.5965 C4.3535,12.8265 2.9865,13.4465 2.778,13.982 C2.814,13.9985 2.858,14.016 2.909,14.0335 C3.1775,14.1275 3.589,14.2135 4.114,14.285 C5.1375,14.424 6.5385,14.5 8,14.5 C9.4615,14.5 10.8625,14.424 11.886,14.285 C12.411,14.2135 12.8225,14.1275 13.091,14.0335 C13.1425,14.016 13.186,13.9985 13.222,13.982 C13.0135,13.4465 11.6465,12.827 9.692,12.597 L9.6915,12.5965 Z M10.25,11.6625 C12.615,12.0165 14.25,12.8995 14.25,14.1215 C14.25,15.1685 11.81,15.5 8,15.5 C4.19,15.5 1.75,15.1685 1.75,14.1215 C1.75,12.8995 3.385,12.0165 5.75,11.6625 L5.75,11.045 C4.865,10.3335 4.116,9.3115 3.6785,8.168 C3.3045,7.865 3.039,7.3665 2.8265,6.64 C2.6265,5.958 2.8275,5.369 3.3005,4.9745 C3.6165,2.195 5.4115,0.5 8.035,0.5 C10.6225,0.5 12.363,2.152 12.6925,4.8975 C13.1525,5.286 13.36,5.896 13.192,6.614 C12.984,7.501 12.71,8.0595 12.2705,8.327 C11.826,9.4305 11.099,10.408 10.25,11.086 L10.25,11.6625 Z" id="Shape"></path>
            </g>
        </g>
    </g>
</svg>