<?xml version="1.0" encoding="UTF-8"?>
<svg width="16px" height="16px" viewBox="0 0 16 16" version="1.1" xmlns="http://www.w3.org/2000/svg" xmlns:xlink="http://www.w3.org/1999/xlink">
    <!-- Generator: Sketch 52.5 (67469) - http://www.bohemiancoding.com/sketch -->
    <title>index_icon_jurisdiction</title>
    <desc>Created with Sketch.</desc>
    <g id="Page-1" stroke="none" stroke-width="1" fill="none" fill-rule="evenodd" fill-opacity="0.65">
        <g id="Desktop-HD" transform="translate(-75.000000, -355.000000)" fill="#000000" fill-rule="nonzero">
            <g id="index_icon_jurisdiction" transform="translate(75.000000, 355.000000)">
                <rect id="Rectangle-path" opacity="0" x="0" y="0" width="16" height="16"></rect>
                <path d="M14.5,8.5 L13,8.5 L13,7.5 L14.5,7.5 C14.7761424,7.5 15,7.27614237 15,7 C15,6.72385763 14.7761424,6.5 14.5,6.5 L12.5,6.5 C12.2238576,6.5 12,6.72385763 12,7 L12,10.56 C10.8838017,10.8139128 10.1366567,11.8660394 10.2647563,13.0035635 C10.3928558,14.1410875 11.3552861,15.0006944 12.5,15 C13.7426407,15 14.75,13.9926407 14.75,12.75 C14.7488131,11.7012011 14.0226994,10.7925217 13,10.56 L13,9.5 L14.5,9.5 C14.7761424,9.5 15,9.27614237 15,9 C15,8.72385763 14.7761424,8.5 14.5,8.5 Z M13.75,12.75 C13.75,13.4403559 13.1903559,14 12.5,14 C11.8096441,14 11.25,13.4403559 11.25,12.75 C11.25,12.0596441 11.8096441,11.5 12.5,11.5 C13.1903559,11.5 13.75,12.0596441 13.75,12.75 Z M8.947,13.8555 L8.9335,13.86 C5.828,14.086 2.376,13.8215 1.643,13.4395 C1.819,12.9675 2.938,12.271 5.1255,12.031 C5.37902216,12.0032004 5.57098935,11.7890418 5.571,11.534 L5.571,10.9395 C5.571,10.77 5.485,10.612 5.3425,10.5195 C4.5425,10.0025 3.8405,9.1515 3.4165,8.1855 C3.36923775,8.07836774 3.28614768,7.99103478 3.1815,7.9385 C3.046,7.871 2.842,7.6275 2.64,6.8495 C2.5625,6.5515 2.6155,6.3375 2.806,6.177 C2.9125,6.087 2.9765,5.957 2.983,5.8175 C3.09,3.427 4.425,2 6.553,2 C8.6385,2 9.914,3.352 10.052,5.709 C10.0615,5.8675 10.1455,6.012 10.278,6.0985 C10.481,6.231 10.542,6.4205 10.4715,6.6945 C10.2755,7.449 10.0805,7.608 10.005,7.641 C9.88139989,7.6957093 9.78524845,7.79817462 9.7385,7.925 C9.348,8.9845 8.608,9.952 7.7595,10.5135 C7.6195988,10.6061138 7.53547385,10.7627214 7.5355,10.9305 L7.5355,11.5335 C7.53551065,11.7885418 7.72747784,12.0027004 7.981,12.0305 C8.1575,12.0495 8.4335,12.0925 8.81,12.158 C9.0815,12.2035 9.341,12.0225 9.388,11.751 C9.435,11.4795 9.2525,11.22 8.981,11.173 C8.86596208,11.1529074 8.75079291,11.1335736 8.6355,11.115 C9.4805,10.4585 10.1845,9.5085 10.6115,8.4425 C11.082,8.115 11.3005,7.482 11.4395,6.946 C11.594,6.351 11.4425,5.799 11.0335,5.423 C10.79,2.688 9.09,1 6.553,1 C3.928,1 2.196,2.7465 1.995,5.573 C1.6385,5.973 1.5205,6.5175 1.672,7.1 C1.8905,7.9415 2.1705,8.456 2.567,8.733 C3.008,9.674 3.677,10.5165 4.4495,11.111 C2.103,11.4755 0.618,12.413 0.618,13.5655 C0.618,13.7075 0.662,13.918 0.871,14.1125 C1.546,14.7385 4.1755,14.9385 6.501,14.9385 C7.4605,14.9385 8.3685,14.9045 9.0655,14.852 C9.1045,14.849 9.143,14.8415 9.1805,14.8295 L9.251,14.807 C9.51382275,14.7227001 9.65862353,14.4413793 9.5745,14.1785 C9.53470545,14.0520508 9.4459966,13.9467662 9.32813156,13.8860962 C9.21026652,13.8254262 9.07303408,13.8144096 8.947,13.8555 Z" id="Shape"></path>
            </g>
        </g>
    </g>
</svg>