<?xml version="1.0" encoding="UTF-8"?>
<svg width="16px" height="18px" viewBox="0 0 16 18" version="1.1" xmlns="http://www.w3.org/2000/svg" xmlns:xlink="http://www.w3.org/1999/xlink">
    <!-- Generator: Sketch 51 (57462) - http://www.bohemiancoding.com/sketch -->
    <title>nav_icon_android</title>
    <desc>Created with Sketch.</desc>
    <defs></defs>
    <g id="Page-1" stroke="none" stroke-width="1" fill="none" fill-rule="evenodd">
        <g id="Desktop-HD" transform="translate(-25.000000, -100.000000)" fill-rule="nonzero">
            <g id="nav_icon_android" transform="translate(24.000000, 100.000000)">
                <rect id="Rectangle-path" fill="#000000" opacity="0" x="0" y="0" width="18" height="18"></rect>
                <path d="M4.12500001,13.48125 C4.12500001,13.93125 4.42500001,14.23125 4.87500001,14.23125 L5.625,14.23125 L5.625,16.85625 C5.625,17.45625 6.15000001,17.98125 6.75,17.98125 C7.34999999,17.98125 7.875,17.45625 7.875,16.85625 L7.875,14.23125 L9.37500001,14.23125 L9.37500001,16.85625 C9.37500001,17.45625 9.90000002,17.98125 10.5,17.98125 C11.1,17.98125 11.625,17.45625 11.625,16.85625 L11.625,14.23125 L12.375,14.23125 C12.825,14.23125 13.125,13.93125 13.125,13.48125 L13.125,5.98124999 L4.12500001,5.98124999 L4.12500001,13.48125 Z M2.25,5.98124999 C1.65000001,5.98124999 1.125,6.50625 1.125,7.10624999 L1.125,12.35625 C1.125,12.95625 1.65000001,13.48125 2.25,13.48125 C2.84999999,13.48125 3.375,12.95625 3.375,12.35625 L3.375,7.10624999 C3.375,6.50625 2.85000001,5.98124999 2.25,5.98124999 Z M15,5.98124999 C14.4,5.98124999 13.875,6.50625 13.875,7.10624999 L13.875,12.35625 C13.875,12.95625 14.4,13.48125 15,13.48125 C15.6,13.48125 16.125,12.95625 16.125,12.35625 L16.125,7.10624999 C16.125,6.50625 15.6,5.98124999 15,5.98124999 Z M11.25,1.63125 L12.225,0.656249999 C12.375,0.506250004 12.375,0.281250004 12.225,0.131249993 C12.075,-0.0187500015 11.85,-0.0187500015 11.7,0.131249993 L10.575,1.25624999 C10.05,0.881249999 9.37500001,0.731250004 8.62500001,0.731250004 C7.875,0.731250004 7.2,0.881249999 6.60000001,1.18125 L5.55000001,0.0562500044 C5.40000002,-0.0187500015 5.10000001,-0.0187500015 4.95,0.0562500044 C4.87499999,0.206249999 4.87499999,0.506250004 4.95,0.656249999 L5.92500001,1.63125 C4.87500001,2.45625 4.12500001,3.73124999 4.12500001,5.23125 L13.125,5.23125 C13.125,3.73125001 12.375,2.38125001 11.25,1.63125 Z M7.12500001,3.73124999 L6.37500001,3.73124999 L6.37500001,2.98125 L7.12500001,2.98125 L7.12500001,3.73124999 Z M10.875,3.73124999 L10.125,3.73124999 L10.125,2.98125 L10.875,2.98125 L10.875,3.73124999 Z" id="Shape" fill="#FFFFFF"></path>
            </g>
        </g>
    </g>
</svg>