<?xml version="1.0" encoding="UTF-8"?>
<svg width="16px" height="16px" viewBox="0 0 16 16" version="1.1" xmlns="http://www.w3.org/2000/svg" xmlns:xlink="http://www.w3.org/1999/xlink">
    <!-- Generator: Sketch 51 (57462) - http://www.bohemiancoding.com/sketch -->
    <title>nav_icon_set_default</title>
    <desc>Created with Sketch.</desc>
    <defs></defs>
    <g id="Page-1" stroke="none" stroke-width="1" fill="none" fill-rule="evenodd" opacity="0.65">
        <g id="Desktop-HD" transform="translate(-55.000000, -434.000000)" fill-rule="nonzero">
            <g id="nav_icon_set_default" transform="translate(54.000000, 433.359928)">
                <rect id="Rectangle-path" fill="#000000" opacity="0" x="0" y="0" width="18" height="18"></rect>
                <path d="M8.69782766,1.79734748 L8.41976828,3.31360653 L8.08764181,3.38904497 C7.51789693,3.5186514 6.97447163,3.75117045 6.48210636,4.07601626 L6.1813903,4.27397527 L5.00221257,3.35373336 L4.28389251,4.10009235 L5.11910049,5.37773054 L4.93578727,5.67466906 C4.62086035,6.18477049 4.39446897,6.74830446 4.26689999,7.33966489 L4.18966128,7.70080634 L2.72984955,7.91642116 L2.72984955,8.97148921 L4.18914635,9.26093739 L4.26175074,9.6060281 C4.38658001,10.1979826 4.61035747,10.7626038 4.92291415,11.2742341 L5.11343632,11.5866883 L4.22776571,12.8118941 L4.94608577,13.5582531 L6.17572612,12.6904436 L6.46150937,12.8809122 C6.95244751,13.208132 7.49481084,13.4433604 8.06395527,13.5759089 L8.41152949,13.6561626 L8.61904417,15.1729566 L9.63447582,15.1729566 L9.91305012,13.6566976 L10.2451766,13.5812591 C10.8148928,13.4515573 11.3583025,13.2190449 11.850712,12.8942879 L12.1514281,12.6963288 L13.3306058,13.6165708 L14.0489259,12.8702118 L13.2137179,11.5925736 L13.3970311,11.2956351 C13.7119581,10.7855336 13.9383494,10.2219997 14.0659184,9.63063923 L14.1431571,9.26949778 L15.6029689,9.05388296 L15.6029689,7.99827988 L14.1436721,7.7088317 L14.0710677,7.36374099 C13.9462384,6.77178651 13.7224609,6.20716529 13.4099043,5.69553501 L13.2193821,5.38308078 L14.1050527,4.15787498 L13.3867326,3.41151599 L12.1570923,4.27932551 L11.871309,4.08885684 C11.3803511,3.76167635 10.8379946,3.52645099 10.2688631,3.39386019 L9.92128892,3.31360653 L9.71377424,1.79681246 L8.69782766,1.79681246 L8.69782766,1.79734748 Z M7.53409767,2.43028131 L7.84665701,0.727298748 L10.6076836,0.727298748 L10.8430043,2.44312189 C11.2935634,2.57794803 11.7255853,2.76627661 12.1323759,3.00436245 L13.5128892,2.02954806 L15.4654839,4.05836045 L14.4634403,5.44407356 C14.6900072,5.86888291 14.8681712,6.31937342 14.9938129,6.78858979 L16.6333333,7.11334958 L16.6333333,9.98215023 L14.9819696,10.2266564 C14.8526267,10.6935131 14.6713515,11.1431138 14.4418135,11.5663574 L15.3800064,13.0007577 L13.4274117,15.0295701 L12.0937565,13.9884127 C11.6849063,14.2238234 11.2513396,14.4089418 10.7997506,14.5394878 L10.4871912,16.2430054 L7.72616462,16.2430054 L7.49084399,14.5271822 C7.04152596,14.3927906 6.60881566,14.2044395 6.20147236,13.9659417 L4.82044412,14.9407561 L2.86784938,12.9119437 L3.86989299,11.5262306 C3.64339337,11.1010082 3.46539997,10.6497875 3.33952048,10.1817143 L1.7,9.85695453 L1.7,6.98815388 L3.35136375,6.74364775 C3.48112479,6.27603645 3.66237831,5.82661598 3.89151983,5.40394673 L2.9533269,3.96954641 L4.90592163,1.94073401 L6.2395768,2.98189143 C6.64882661,2.74655501 7.08309545,2.56161402 7.53358275,2.43081633 L7.53409767,2.43028131 Z M9.1664092,11.6952983 C7.46009861,11.6952983 6.07686057,10.2580668 6.07686057,8.48515206 C6.07686057,6.71223727 7.46009861,5.27500586 9.1664092,5.27500586 C10.8727198,5.27500586 12.2559578,6.71223727 12.2559578,8.48515206 C12.2559578,10.2580668 10.8727198,11.6952983 9.1664092,11.6952983 Z M9.1664092,10.6252495 C10.3039496,10.6252495 11.2261083,9.66709525 11.2261083,8.48515206 C11.2261083,7.30320886 10.3039496,6.34505459 9.1664092,6.34505459 C8.02886881,6.34505459 7.10671011,7.30320886 7.10671011,8.48515206 C7.10671011,9.66709525 8.02886881,10.6252495 9.1664092,10.6252495 Z" id="Shape" fill="#FFFFFF"></path>
            </g>
        </g>
    </g>
</svg>