<?xml version="1.0" encoding="UTF-8"?>
<svg width="18px" height="18px" viewBox="0 0 18 18" version="1.1" xmlns="http://www.w3.org/2000/svg" xmlns:xlink="http://www.w3.org/1999/xlink">
    <!-- Generator: Sketch 52.5 (67469) - http://www.bohemiancoding.com/sketch -->
    <title>nav_icon_dashboard_default</title>
    <desc>Created with Sketch.</desc>
    <g id="Page-1" stroke="none" stroke-width="1" fill="none" fill-rule="evenodd" opacity="0.65">
        <g id="Desktop-HD" transform="translate(-129.000000, -91.000000)">
            <g id="nav_icon_dashboard_default" transform="translate(129.000000, 91.000000)">
                <rect id="Rectangle-4" x="0" y="0" width="18" height="18"></rect>
                <g id="dashboard" transform="translate(1.000000, 1.000000)" fill="#FFFFFF" fill-rule="nonzero">
                    <path d="M8,0 C3.58125,0 0,3.7007535 0,8.26695371 C0,10.9714747 1.25625,13.3724435 3.2,14.8805167 L3.2015625,14.8772874 C3.296875,14.9531755 3.4171875,15 3.546875,15 C3.8578125,15 4.109375,14.7400431 4.109375,14.4187298 C4.109375,14.2055974 3.9984375,14.0199139 3.8328125,13.9181916 C3.2421875,13.4531755 2.7265625,12.8896663 2.309375,12.2534984 L3,11.8417653 C3.2390625,11.6996771 3.3203125,11.3832078 3.1828125,11.1361679 C3.0453125,10.8891281 2.7390625,10.8051668 2.5,10.9472551 L1.809375,11.3589882 C1.4390625,10.5710441 1.20625,9.7007535 1.14375,8.78363832 L1.9375,8.78363832 C2.2140625,8.78363832 2.4375,8.55274489 2.4375,8.26695371 C2.4375,7.98116254 2.2140625,7.75026911 1.9375,7.75026911 L1.14375,7.75026911 C1.2078125,6.82992465 1.4421875,5.95801938 1.8125,5.16684607 L2.5,5.57696448 C2.7390625,5.71905274 3.0453125,5.6350915 3.1828125,5.38805167 C3.3203125,5.14101184 3.2390625,4.82454252 3,4.68245425 L2.3140625,4.27395048 C2.8015625,3.53444564 3.4203125,2.89504844 4.1359375,2.39128095 L4.53125,3.10010764 C4.66875,3.34714747 4.975,3.43110872 5.2140625,3.28902045 C5.453125,3.14693219 5.534375,2.83046286 5.396875,2.58342304 L5,1.8729817 C5.7640625,1.48869752 6.6078125,1.24811625 7.5,1.18191604 L7.5,2.00215285 C7.5,2.28794403 7.7234375,2.51883746 8,2.51883746 C8.2765625,2.51883746 8.5,2.28794403 8.5,2.00215285 L8.5,1.18191604 C9.3875,1.24811625 10.2296875,1.48869752 10.9921875,1.86975242 L10.59375,2.58342304 C10.45625,2.83046286 10.5375,3.14693219 10.7765625,3.28902045 C11.015625,3.43110872 11.321875,3.34714747 11.459375,3.10010764 L11.8578125,2.38643703 C12.5765625,2.89020452 13.196875,3.53121636 13.6859375,4.27395048 L13,4.68245425 C12.7609375,4.82454252 12.6796875,5.14101184 12.8171875,5.38805167 C12.9546875,5.6350915 13.2609375,5.71905274 13.5,5.57696448 L14.1875,5.16684607 C14.559375,5.95640474 14.7921875,6.82992465 14.85625,7.75026911 L14.0625,7.75026911 C13.7859375,7.75026911 13.5625,7.98116254 13.5625,8.26695371 C13.5625,8.55274489 13.7859375,8.78363832 14.0625,8.78363832 L14.85625,8.78363832 C14.7921875,9.70236814 14.559375,10.5710441 14.190625,11.3589882 L13.5,10.9472551 C13.2609375,10.8051668 12.9546875,10.8891281 12.8171875,11.1361679 C12.6796875,11.3832078 12.7609375,11.6996771 13,11.8417653 L13.690625,12.2534984 C13.2625,12.9058127 12.7328125,13.4790097 12.125,13.9504844 L12.128125,13.9553283 C11.9921875,14.0618945 11.90625,14.229817 11.90625,14.4187298 C11.90625,14.7400431 12.1578125,15 12.46875,15 C12.625,15 12.7671875,14.9337998 12.8703125,14.8256189 C14.7734375,13.3159311 16,10.9391819 16,8.26695371 C16,3.7007535 12.41875,0 8,0 Z" id="Shape"></path>
                    <path d="M10.2649475,6.1124363 L8.47747405,7.73832538 C8.34096057,7.65885218 8.18596088,7.6158042 8.02385112,7.6158042 C7.45788897,7.6158042 7,8.14893688 7,8.8079021 C7,9.46686733 7.45788897,10 8.02385112,10 C8.58981327,10 9.04770224,9.46686733 9.04770224,8.8079021 C9.04770224,8.7300846 9.04201418,8.65557848 9.02921604,8.58272805 L10.8252216,6.94690483 C11.0228817,6.76643445 11.0584321,6.43364046 10.9034324,6.20349933 C10.7484327,5.97335821 10.4626076,5.93196592 10.2649475,6.1124363 Z" id="Shape"></path>
                </g>
            </g>
        </g>
    </g>
</svg>