<?xml version="1.0" encoding="UTF-8"?>
<svg width="18px" height="18px" viewBox="0 0 18 18" version="1.1" xmlns="http://www.w3.org/2000/svg" xmlns:xlink="http://www.w3.org/1999/xlink">
    <!-- Generator: Sketch 52.5 (67469) - http://www.bohemiancoding.com/sketch -->
    <title>nav_icon_package_hover</title>
    <desc>Created with Sketch.</desc>
    <g id="Page-1" stroke="none" stroke-width="1" fill="none" fill-rule="evenodd">
        <g id="Desktop-HD" transform="translate(-243.000000, -116.000000)" fill-rule="nonzero">
            <g id="nav_icon_package_hover" transform="translate(243.000000, 116.000000)">
                <rect id="Rectangle-path" fill="#000000" opacity="0" x="0" y="0" width="18" height="18"></rect>
                <path d="M16.597,4.74662544 L9.846,1.08831273 C9.6301345,0.971300576 9.3730152,0.970525677 9.1565,1.08623474 L2.4075,4.68792204 C2.15730986,4.82122365 1.9999711,5.08880062 2,5.38093384 L2,12.829512 C2,13.125107 2.161,13.3952465 2.4155,13.5271993 L9.1655,17.0234283 C9.37614789,17.1324889 9.62385211,17.1324889 9.8345,17.0234283 L16.5845,13.5271993 C16.8389996,13.3954351 16.9998958,13.1254671 17,12.8300315 L17,5.43807875 C17,5.14715925 16.8445,4.8811757 16.597,4.74662544 Z M9.4435,8.26830987 L6.9095,6.9726791 L12.6495,3.7793181 L15.1245,5.12066479 L9.4435,8.26830987 Z M9.498,2.07172454 L11.576,3.1979986 L5.8055,6.40850307 L3.5415,5.25053957 L9.498,2.07172454 Z M3,6.13212955 L5.394,7.35606944 L5.394,10.0875957 C5.394,10.3745072 5.61785763,10.6070948 5.894,10.6070948 C6.17014237,10.6070948 6.394,10.3745072 6.394,10.0875957 L6.394,7.86777606 L9,9.19925227 L9,15.7771499 L3,12.6689868 L3,6.13212955 Z M10,15.7771499 L10,9.13691238 L16,5.8131571 L16,12.6689868 L10,15.7771499 Z" id="Shape" fill="#FFFFFF"></path>
            </g>
        </g>
    </g>
</svg>