<?xml version="1.0" encoding="UTF-8"?>
<svg width="14px" height="15px" viewBox="0 0 14 15" version="1.1" xmlns="http://www.w3.org/2000/svg" xmlns:xlink="http://www.w3.org/1999/xlink">
    <!-- Generator: Sketch 51 (57462) - http://www.bohemiancoding.com/sketch -->
    <title>nav_icon_check_hover</title>
    <desc>Created with Sketch.</desc>
    <defs></defs>
    <g id="Page-1" stroke="none" stroke-width="1" fill="none" fill-rule="evenodd">
        <g id="Desktop-HD" transform="translate(-86.000000, -287.000000)" fill-rule="nonzero">
            <g id="nav_icon_check_hover" transform="translate(84.000000, 285.042218)">
                <rect id="Rectangle-path" fill="#000000" opacity="0" x="0" y="0" width="18" height="18"></rect>
                <path d="M5,9.01323792 L6.275,10.7795349 C6.44068542,11.009064 6.39591389,11.3346868 6.17499999,11.5068336 C5.9540861,11.6789805 5.64068543,11.6324629 5.475,11.4029338 L3.975,9.32493739 C3.84149977,9.14028443 3.84149977,8.88619142 3.975,8.70153846 L5.475,6.62354204 C5.64068543,6.3940129 5.9540861,6.34749537 6.17499999,6.51964223 C6.39591389,6.69178909 6.44068542,7.01741182 6.275,7.24694097 L5,9.01323792 Z M11.475,10.7795349 C11.3093146,11.009064 11.3540861,11.3346868 11.575,11.5068336 C11.7959139,11.6789805 12.1093146,11.632463 12.275,11.4029338 L13.775,9.32493739 C13.9085002,9.14028443 13.9085002,8.88619142 13.775,8.70153846 L12.275,6.62354204 C12.1093146,6.3940129 11.7959139,6.34749537 11.575,6.51964223 C11.3540861,6.69178908 11.3093146,7.01741182 11.475,7.24694097 L12.75,9.01323792 L11.475,10.7795349 Z M8.863,11.2039657 C8.82699384,11.388069 8.69812704,11.537631 8.5259824,11.5951061 C8.35383776,11.6525812 8.16523915,11.6090137 8.03275179,11.4811665 C7.90026443,11.3533193 7.84453272,11.1611138 7.887,10.978503 L8.887,6.30301109 C8.92300616,6.11890777 9.05187296,5.96934579 9.2240176,5.91187065 C9.39616224,5.8543955 9.58476085,5.89796306 9.71724821,6.02581026 C9.84973557,6.15365746 9.90546728,6.34586294 9.863,6.5284737 L8.863,11.2039657 Z M3.5,3.03899821 C3.22385763,3.03899821 3,3.27158588 3,3.55849732 L3,14.7277281 C3,15.0146395 3.22385763,15.2472272 3.5,15.2472272 L14.25,15.2472272 C14.5261424,15.2472272 14.75,15.0146395 14.75,14.7277281 L14.75,3.55849732 C14.75,3.27158588 14.5261424,3.03899821 14.25,3.03899821 L3.5,3.03899821 Z M3.5,2 L14.25,2 C15.0784271,2 15.75,2.69776302 15.75,3.55849732 L15.75,14.7277281 C15.75,15.5884624 15.0784271,16.2862254 14.25,16.2862254 L3.5,16.2862254 C2.67157288,16.2862254 2,15.5884624 2,14.7277281 L2,3.55849732 C2,2.69776302 2.67157288,2 3.5,2 Z" id="Shape" fill="#FFFFFF"></path>
            </g>
        </g>
    </g>
</svg>