<?xml version="1.0" encoding="UTF-8"?>
<svg width="18px" height="18px" viewBox="0 0 18 18" version="1.1" xmlns="http://www.w3.org/2000/svg" xmlns:xlink="http://www.w3.org/1999/xlink">
    <!-- Generator: Sketch 52.5 (67469) - http://www.bohemiancoding.com/sketch -->
    <title>nav_icon_ios</title>
    <desc>Created with Sketch.</desc>
    <g id="Page-1" stroke="none" stroke-width="1" fill="none" fill-rule="evenodd">
        <g id="Desktop-HD" transform="translate(-319.000000, -116.000000)" fill-rule="nonzero">
            <g id="nav_icon_ios" transform="translate(319.000000, 116.000000)">
                <rect id="Rectangle-path" fill="#000000" opacity="0" x="0" y="0" width="18" height="18"></rect>
                <path d="M15.5475763,5.86077552 C14.5385861,4.38413702 12.9653646,4.18081442 12.4036883,4.15539124 C11.0643015,4.02069447 9.79098557,4.94325847 9.11239195,4.94325847 C8.43379832,4.94325847 7.38669426,4.17570466 6.27603225,4.19603901 C4.81717322,4.21890731 3.4727185,5.0449093 2.72041022,6.3512502 C1.20312395,8.98428729 2.33154449,12.8830175 3.81073787,15.0153814 C4.53253415,16.0599724 5.39411602,17.2315956 6.52511238,17.1909478 C7.61288515,17.1477452 8.02461918,16.486931 9.34113772,16.486931 C10.6576563,16.486931 11.0261876,17.1909478 12.1800523,17.1705925 C13.3516964,17.1477242 14.093848,16.1056881 14.8105555,15.058584 C15.6390914,13.8462712 15.9821996,12.6720931 16,12.6161579 C15.9745768,12.6008914 13.7151599,11.7367966 13.6922916,9.13425054 C13.6693815,6.95621294 15.4687938,5.91162188 15.5475763,5.86077552 Z M12.4214678,0 C11.557331,0.0355798844 10.510227,0.574387916 9.89008152,1.30127302 C9.33602796,1.9468207 8.84549046,2.97614529 8.97767423,3.96226723 C9.94092788,4.03851583 10.9270289,3.47175068 11.52684,2.74488652 C12.1266301,2.01798047 12.5307414,1.00645629 12.4214678,0 Z" id="Shape" fill="#FFFFFF"></path>
            </g>
        </g>
    </g>
</svg>