<?xml version="1.0" encoding="UTF-8"?>
<svg width="18px" height="18px" viewBox="0 0 18 18" version="1.1" xmlns="http://www.w3.org/2000/svg" xmlns:xlink="http://www.w3.org/1999/xlink">
    <!-- Generator: Sketch 52.5 (67469) - http://www.bohemiancoding.com/sketch -->
    <title>nav_icon_line_hover</title>
    <desc>Created with Sketch.</desc>
    <g id="Page-1" stroke="none" stroke-width="1" fill="none" fill-rule="evenodd">
        <g id="Desktop-HD" transform="translate(-91.000000, -116.000000)" fill-rule="nonzero">
            <g id="nav_icon_line_hover" transform="translate(91.000000, 116.000000)">
                <rect id="Rectangle-path" fill="#000000" opacity="0" x="0" y="0" width="18" height="18"></rect>
                <path d="M14.4845,7.23398927 C15.3215,7.23398927 16,6.53630197 16,5.67549195 L16,3.59749553 C16,2.73668551 15.3215,2.03899821 14.4845,2.03899821 L3.5155,2.03899821 C2.6785,2.03899821 2,2.73668551 2,3.59749553 L2,5.67549195 C2,6.53630197 2.6785,7.23398927 3.5155,7.23398927 L6,7.23398927 L6,9.31198569 C6,9.59889712 6.22385763,9.83148479 6.5,9.83148479 L11,9.83148479 L11,11.3899821 L3.5155,11.3899821 C2.6785,11.3899821 2,12.0876694 2,12.9484794 L2,15.0264758 C2,15.8872859 2.6785,16.5849732 3.5155,16.5849732 L14.4845,16.5849732 C15.3215,16.5849732 16,15.8872859 16,15.0264758 L16,12.9484794 C16,12.0876694 15.3215,11.3899821 14.4845,11.3899821 L12,11.3899821 L12,9.31198569 C12,9.02507426 11.7761424,8.79248658 11.5,8.79248658 L7,8.79248658 L7,7.23398927 L14.4845,7.23398927 Z M14.4845,12.4289803 C14.7635,12.4289803 14.9895,12.6617159 14.9895,12.9484794 L14.9895,15.0264758 C14.9895,15.3132394 14.7635,15.545975 14.4845,15.545975 L3.5155,15.545975 C3.2365,15.545975 3.0105,15.3132394 3.0105,15.0264758 L3.0105,12.9484794 C3.0105,12.6617159 3.2365,12.4289803 3.5155,12.4289803 L14.4845,12.4289803 Z M3.0105,5.67549195 L3.0105,3.59749553 C3.0105,3.31073202 3.2365,3.07799642 3.5155,3.07799642 L14.4845,3.07799642 C14.7635,3.07799642 14.9895,3.31073202 14.9895,3.59749553 L14.9895,5.67549195 C14.9895,5.96225546 14.7635,6.19499106 14.4845,6.19499106 L3.5155,6.19499106 C3.2365,6.19499106 3.0105,5.96225546 3.0105,5.67549195 Z M6,14.5069767 L12,14.5069767 C12.2761424,14.5069767 12.5,14.2743891 12.5,13.9874776 C12.5,13.7005662 12.2761424,13.4679785 12,13.4679785 L6,13.4679785 C5.72385763,13.4679785 5.5,13.7005662 5.5,13.9874776 C5.5,14.2743891 5.72385763,14.5069767 6,14.5069767 Z M12.5,4.63649374 C12.5,4.34958231 12.2761424,4.11699463 12,4.11699463 L6,4.11699463 C5.72385763,4.11699463 5.5,4.34958231 5.5,4.63649374 C5.5,4.92340517 5.72385763,5.15599284 6,5.15599284 L12,5.15599284 C12.2761424,5.15599284 12.5,4.92340517 12.5,4.63649374 Z" id="Shape" fill="#FFFFFF"></path>
            </g>
        </g>
    </g>
</svg>