<?xml version="1.0" encoding="UTF-8"?>
<svg width="22px" height="22px" viewBox="0 0 22 22" version="1.1" xmlns="http://www.w3.org/2000/svg" xmlns:xlink="http://www.w3.org/1999/xlink">
    <!-- Generator: Sketch 51 (57462) - http://www.bohemiancoding.com/sketch -->
    <title>package_icon_question_default</title>
    <desc>Created with Sketch.</desc>
    <defs></defs>
    <g id="Page-1" stroke="none" stroke-width="1" fill="none" fill-rule="evenodd" opacity="0.45">
        <g id="Desktop-HD" transform="translate(-119.000000, -215.000000)" fill="#222222" fill-rule="nonzero">
            <g id="package_icon_question_default" transform="translate(118.000000, 214.000000)">
                <rect id="Rectangle-path" opacity="0" x="0" y="0" width="24" height="24"></rect>
                <path d="M12,1.5 C6.2015625,1.5 1.5,6.2015625 1.5,12 C1.5,17.7984375 6.2015625,22.5 12,22.5 C17.7984375,22.5 22.5,17.7984375 22.5,12 C22.5,6.2015625 17.7984375,1.5 12,1.5 Z M12,20.71875 C7.1859375,20.71875 3.28125,16.8140625 3.28125,12 C3.28125,7.1859375 7.1859375,3.28125 12,3.28125 C16.8140625,3.28125 20.71875,7.1859375 20.71875,12 C20.71875,16.8140625 16.8140625,20.71875 12,20.71875 Z" id="Shape"></path>
                <path d="M14.615625,7.42265625 C13.9125,6.80625 12.984375,6.46875 12,6.46875 C11.015625,6.46875 10.0875,6.80859375 9.384375,7.42265625 C8.653125,8.0625 8.25,8.92265625 8.25,9.84375 L8.25,10.021875 C8.25,10.125 8.334375,10.209375 8.4375,10.209375 L9.5625,10.209375 C9.665625,10.209375 9.75,10.125 9.75,10.021875 L9.75,9.84375 C9.75,8.81015625 10.7601563,7.96875 12,7.96875 C13.2398437,7.96875 14.25,8.81015625 14.25,9.84375 C14.25,10.5726563 13.734375,11.240625 12.9351562,11.5476562 C12.4382812,11.7375 12.0164062,12.0703125 11.7140625,12.50625 C11.4070312,12.9515625 11.2476562,13.4859375 11.2476562,14.0273438 L11.2476562,14.53125 C11.2476562,14.634375 11.3320312,14.71875 11.4351562,14.71875 L12.5601562,14.71875 C12.6632812,14.71875 12.7476562,14.634375 12.7476562,14.53125 L12.7476562,13.9992187 C12.7476562,13.5375 13.0382812,13.115625 13.471875,12.9492188 C14.8546875,12.4171875 15.7476562,11.1984375 15.7476562,9.84375 C15.75,8.92265625 15.346875,8.0625 14.615625,7.42265625 Z" id="Shape"></path>
                <path d="M11.0625,17.15625 C11.0625,17.674017 11.482233,18.09375 12,18.09375 C12.517767,18.09375 12.9375,17.674017 12.9375,17.15625 C12.9375,16.638483 12.517767,16.21875 12,16.21875 C11.482233,16.21875 11.0625,16.638483 11.0625,17.15625 Z" id="Shape"></path>
            </g>
        </g>
    </g>
</svg>