<?xml version="1.0" encoding="UTF-8"?>
<svg width="24px" height="24px" viewBox="0 0 24 24" version="1.1" xmlns="http://www.w3.org/2000/svg" xmlns:xlink="http://www.w3.org/1999/xlink">
    <!-- Generator: Sketch 52.5 (67469) - http://www.bohemiancoding.com/sketch -->
    <title>package_icon_qrcode_default</title>
    <desc>Created with Sketch.</desc>
    <g id="Page-1" stroke="none" stroke-width="1" fill="none" fill-rule="evenodd" opacity="0.45">
        <g id="Desktop-HD" transform="translate(-143.000000, -394.000000)" fill="#000000" fill-rule="nonzero">
            <g id="package_icon_qrcode_default" transform="translate(143.000000, 394.000000)">
                <rect id="Rectangle-path" opacity="0" x="0" y="0" width="24" height="24"></rect>
                <path d="M10.7931034,2 L2.82758621,2 C2.36982759,2 2,2.36982759 2,2.82758621 L2,10.7931034 C2,10.9068966 2.09310345,11 2.20689655,11 L10.7931034,11 C10.9068966,11 11,10.9068966 11,10.7931034 L11,2.20689655 C11,2.09310345 10.9068966,2 10.7931034,2 Z M9,9 L4,9 L4,4 L9,4 L9,9 Z M5.22222222,7 L6.77777778,7 C6.9,7 7,6.9 7,6.77777778 L7,5.22222222 C7,5.1 6.9,5 6.77777778,5 L5.22222222,5 C5.1,5 5,5.1 5,5.22222222 L5,6.77777778 C5,6.9 5.1,7 5.22222222,7 Z M10.7931034,13 L2.20689655,13 C2.09310345,13 2,13.0931034 2,13.2068966 L2,21.1724138 C2,21.6301724 2.36982759,22 2.82758621,22 L10.7931034,22 C10.9068966,22 11,21.9068966 11,21.7931034 L11,13.2068966 C11,13.0931034 10.9068966,13 10.7931034,13 Z M9,20 L4,20 L4,15 L9,15 L9,20 Z M5.22222222,19 L6.77777778,19 C6.9,19 7,18.9 7,18.7777778 L7,17.2222222 C7,17.1 6.9,17 6.77777778,17 L5.22222222,17 C5.1,17 5,17.1 5,17.2222222 L5,18.7777778 C5,18.9 5.1,19 5.22222222,19 Z M21.1724138,2 L13.2068966,2 C13.0931034,2 13,2.09310345 13,2.20689655 L13,10.7931034 C13,10.9068966 13.0931034,11 13.2068966,11 L21.7931034,11 C21.9068966,11 22,10.9068966 22,10.7931034 L22,2.82758621 C22,2.36982759 21.6301724,2 21.1724138,2 Z M20,9 L15,9 L15,4 L20,4 L20,9 Z M17.2222222,7 L18.7777778,7 C18.9,7 19,6.9 19,6.77777778 L19,5.22222222 C19,5.1 18.9,5 18.7777778,5 L17.2222222,5 C17.1,5 17,5.1 17,5.22222222 L17,6.77777778 C17,6.9 17.1,7 17.2222222,7 Z M21.7931034,13 L20.5517241,13 C20.437931,13 20.3448276,13.0931034 20.3448276,13.2068966 L20.3448276,16.6724138 L18.3275862,16.6724138 L18.3275862,13.2068966 C18.3275862,13.0931034 18.2344828,13 18.1206897,13 L13.2068966,13 C13.0931034,13 13,13.0931034 13,13.2068966 L13,21.7931034 C13,21.9068966 13.0931034,22 13.2068966,22 L14.4482759,22 C14.562069,22 14.6551724,21.9068966 14.6551724,21.7931034 L14.6551724,15.4827586 L16.6724138,15.4827586 L16.6724138,18.1206897 C16.6724138,18.2344828 16.7655172,18.3275862 16.8793103,18.3275862 L21.7931034,18.3275862 C21.9068966,18.3275862 22,18.2344828 22,18.1206897 L22,13.2068966 C22,13.0931034 21.9068966,13 21.7931034,13 Z M18.75,20 L17.25,20 C17.1125,20 17,20.1125 17,20.25 L17,21.75 C17,21.8875 17.1125,22 17.25,22 L18.75,22 C18.8875,22 19,21.8875 19,21.75 L19,20.25 C19,20.1125 18.8875,20 18.75,20 Z M21.75,20 L20.25,20 C20.1125,20 20,20.1125 20,20.25 L20,21.75 C20,21.8875 20.1125,22 20.25,22 L21.75,22 C21.8875,22 22,21.8875 22,21.75 L22,20.25 C22,20.1125 21.8875,20 21.75,20 Z" id="Shape"></path>
            </g>
        </g>
    </g>
</svg>