<?xml version="1.0" encoding="UTF-8"?>
<svg width="28px" height="28px" viewBox="0 0 28 28" version="1.1" xmlns="http://www.w3.org/2000/svg" xmlns:xlink="http://www.w3.org/1999/xlink">
    <!-- Generator: Sketch 52.5 (67469) - http://www.bohemiancoding.com/sketch -->
    <title>编译打包</title>
    <desc>Created with Sketch.</desc>
    <g id="Page-1" stroke="none" stroke-width="1" fill="none" fill-rule="evenodd" opacity="0.65">
        <g id="Desktop-HD" transform="translate(-297.000000, -451.000000)" fill="#000000">
            <g id="编译打包" transform="translate(295.000000, 449.000000)">
                <rect id="矩形" opacity="0" x="0" y="0" width="32" height="32"></rect>
                <path d="M10,25 C9.44771525,25 9,24.5522847 9,24 C9,23.4477153 9.44771525,23 10,23 L22,23 C22.5522847,23 23,23.4477153 23,24 C23,24.5522847 22.5522847,25 22,25 L10,25 Z M13.6552822,15.9447941 L5.69023649,6.7214354 C5.24434749,6.20465505 5.00043714,5.55688206 5,4.88831692 C5,3.29589153 6.36225559,2 8.03623089,2 L23.9653102,2 C24.6666795,2 25.3518556,2.2329909 25.8923047,2.65661071 C27.1862161,3.66990015 27.3736611,5.48835146 26.3113046,6.7214354 L18.347271,15.9447941 C17.7709439,16.6125724 16.9105415,16.9997375 16.0022887,16.9999926 C15.0929403,17.0019588 14.2309685,16.6144221 13.6552822,15.9447941 Z M8.01221267,4 C7.62047948,4.00172867 7.26463127,4.21387754 7.09737163,4.5454081 C6.93011199,4.87693865 6.98117886,5.2689064 7.22865813,5.55310793 L15.2164486,14.6532755 C15.4092923,14.8736553 15.696528,14.9999938 16.0010181,14.9999938 C16.3054674,15.0010294 16.5940005,14.8728217 16.7855876,14.6513757 L24.771348,5.55310793 C25.0190542,5.26864031 25.0699632,4.87623642 24.9021938,4.54455485 C24.7344245,4.21287329 24.3778634,4.00100002 23.9857636,4 L8.01221267,4 Z M27,30 L5,30 C3.346,30 2,28.654 2,27 L2,13 C2,11.346 3.346,10 5,10 L5.391,10 L5.391,12 L5,12 C4.449,12 4,12.449 4,13 L4,27 C4,27.552 4.449,28 5,28 L27,28 C27.5522847,28 28,27.5522847 28,27 L28,13 C28,12.449 27.552,12 27,12 L26.285,12 L26.285,10 L27,10 C28.654,10 30,11.346 30,13 L30,27 C30,28.654 28.654,30 27,30 Z" id="形状" fill-rule="nonzero"></path>
            </g>
        </g>
    </g>
</svg>