<?xml version="1.0" encoding="UTF-8"?>
<svg width="32px" height="32px" viewBox="0 0 32 32" version="1.1" xmlns="http://www.w3.org/2000/svg" xmlns:xlink="http://www.w3.org/1999/xlink">
    <!-- Generator: Sketch 52.5 (67469) - http://www.bohemiancoding.com/sketch -->
    <title>pipelining_icon_reinforce</title>
    <desc>Created with Sketch.</desc>
    <g id="Page-1" stroke="none" stroke-width="1" fill="none" fill-rule="evenodd">
        <g id="Desktop-HD" transform="translate(-519.000000, -449.000000)" fill="#000000">
            <g id="加固icon" transform="translate(519.000000, 449.000000)">
                <rect id="矩形" opacity="0" x="0" y="0" width="32" height="32"></rect>
                <path d="M22.017,10.603 C21.8296026,10.4152836 21.5752456,10.3097988 21.31,10.3097988 C21.0447544,10.3097988 20.7903974,10.4152836 20.603,10.603 L14.31,16.896 L11.34,13.926 C11.0874132,13.6734132 10.71926,13.5747668 10.37422,13.66722 C10.0291801,13.7596732 9.75967318,14.0291801 9.66722001,14.37422 C9.57476684,14.71926 9.67341321,15.0874132 9.926,15.34 L13.603,19.017 C13.7903974,19.2047164 14.0447544,19.3102012 14.31,19.3102012 C14.5752456,19.3102012 14.8296026,19.2047164 15.017,19.017 L22.017,12.017 C22.2047164,11.8296026 22.3102012,11.5752456 22.3102012,11.31 C22.3102012,11.0447544 22.2047164,10.7903974 22.017,10.603 Z M28,3 L16,1 C16.1010815,0.994089532 15.9677309,0.994032793 16,1 L4,3 C3.37314062,3.28765719 3,3.73086073 3,4 L3,18 C3,20.3725727 3.6991901,22.4254652 5,24 C6.14999479,25.7179348 7.63128385,27.0326458 9,28 C12.5725026,30.1129724 15.6265885,30.9301048 16,31 C15.9401154,31.0126539 16.1349078,31.0119954 16,31 C16.447349,30.9274932 19.4835938,30.0935192 23,28 C24.3956641,27.0001012 25.8680833,25.6847205 27,24 C28.304737,22.3995165 29,20.3566017 29,18 L29,4 C29,3.73126252 28.6274349,3.28829335 28,3 Z M27,18 C27,21.4006913 25.1560562,24.1792408 22,26 C19.1972188,27.9469756 16.8341094,28.7505825 16,29 C14.2676719,28.4649182 5,25.3118521 5,18 L5,5 L16,3 L27,5 L27,18 Z" id="形状" fill-rule="nonzero" opacity="0.65"></path>
            </g>
        </g>
    </g>
</svg>