<?xml version="1.0" encoding="UTF-8"?>
<svg width="28px" height="28px" viewBox="0 0 28 28" version="1.1" xmlns="http://www.w3.org/2000/svg" xmlns:xlink="http://www.w3.org/1999/xlink">
    <!-- Generator: Sketch 52.5 (67469) - http://www.bohemiancoding.com/sketch -->
    <title>源码icon</title>
    <desc>Created with Sketch.</desc>
    <g id="Page-1" stroke="none" stroke-width="1" fill="none" fill-rule="evenodd" opacity="0.65">
        <g id="Desktop-HD" transform="translate(-129.000000, -451.000000)" fill="#000000">
            <g id="源码icon" transform="translate(127.000000, 449.000000)">
                <rect id="矩形" opacity="0" x="0" y="0" width="32" height="32"></rect>
                <path d="M8.25011121,16 L10.7999535,19.39996 C11.1313039,19.8417826 11.0417664,20.4685766 10.5999659,20.7999435 C10.1581654,21.1313104 9.53140283,21.0417685 9.20005247,20.5999459 L6.20023797,16.5999929 C5.93325401,16.2445529 5.93325401,15.7554471 6.20023797,15.4000071 L9.20005247,11.4000541 C9.53140283,10.9582315 10.1581654,10.8686896 10.5999659,11.2000565 C11.0417664,11.5314234 11.1313039,12.1582174 10.7999535,12.60004 L8.25011121,16 Z M21.2000465,19.39996 C20.8686961,19.8417826 20.9582336,20.4685766 21.4000341,20.7999435 C21.8418346,21.1313105 22.4685972,21.0417685 22.7999475,20.5999459 L25.799762,16.5999929 C26.066746,16.2445529 26.066746,15.7554471 25.799762,15.4000071 L22.7999475,11.4000541 C22.4685972,10.9582315 21.8418346,10.8686896 21.4000341,11.2000565 C20.9582337,11.5314234 20.8686961,12.1582174 21.2000465,12.60004 L23.7498888,16 L21.2000465,19.39996 Z M15.9760479,20.201709 C15.9041792,20.5549464 15.6469598,20.8419096 15.3033574,20.9521867 C14.9597549,21.0624638 14.5833102,20.9788711 14.3188641,20.7335718 C14.054418,20.4882725 13.9431769,20.1194895 14.027942,19.7691159 L16.0239521,10.798291 C16.0958208,10.4450536 16.3530402,10.1580904 16.6966426,10.0478133 C17.0402451,9.93753625 17.4166898,10.0211289 17.6811359,10.2664282 C17.945582,10.5117275 18.0568231,10.8805105 17.972058,11.2308841 L15.9760479,20.201709 Z M4.9787234,4 C4.43818939,4 4,4.45724111 4,5.0212766 L4,26.9787234 C4,27.5427589 4.43818939,28 4.9787234,28 L27.0212766,28 C27.5618106,28 28,27.5427589 28,26.9787234 L28,5.0212766 C28,4.45724111 27.5618106,4 27.0212766,4 L4.9787234,4 Z M4.94545455,2 L27.0545455,2 C28.6812751,2 30,3.36756658 30,5.05454545 L30,26.9454545 C30,28.6324334 28.6812751,30 27.0545455,30 L4.94545455,30 C3.31872492,30 2,28.6324334 2,26.9454545 L2,5.05454545 C2,3.36756658 3.31872492,2 4.94545455,2 Z" id="形状" fill-rule="nonzero"></path>
            </g>
        </g>
    </g>
</svg>