<?xml version="1.0" encoding="UTF-8"?>
<svg width="32px" height="32px" viewBox="0 0 32 32" version="1.1" xmlns="http://www.w3.org/2000/svg" xmlns:xlink="http://www.w3.org/1999/xlink">
    <!-- Generator: Sketch 52.5 (67469) - http://www.bohemiancoding.com/sketch -->
    <title>pipelining_icon_app_scanning</title>
    <desc>Created with Sketch.</desc>
    <g id="Page-1" stroke="none" stroke-width="1" fill="none" fill-rule="evenodd" opacity="0.65">
        <g id="Desktop-HD" transform="translate(-239.000000, -449.000000)" fill="#000000">
            <g id="APP安全扫描icon" transform="translate(239.000000, 449.000000)">
                <rect id="矩形" opacity="0" x="0" y="0" width="32" height="32"></rect>
                <path d="M15,26 C15,27.1045695 15.8954305,28 17,28 C18.1045695,28 19,27.1045695 19,26 C19,24.8954305 18.1045695,24 17,24 C15.8954305,24 15,24.8954305 15,26 Z M26.2,1 L6.8,1 C5.21,1 4,2.448 4,4.154 L4,27.846 C4,29.552 5.21,31 6.8,31 L26.2,31 C27.79,31 29,29.552 29,27.846 L29,4.154 C29,2.448 27.79,1 26.2,1 Z M6.8,3 L26.2,3 C26.598,3 27,3.481 27,4.154 L27,5 L6,5 L6,4.154 C6,3.481 6.402,3 6.8,3 Z M26.2,29 L6.8,29 C6.402,29 6,28.519 6,27.846 L6,7 L27,7 L27,27.846 C27,28.519 26.598,29 26.2,29 Z M23,17 L11,17 C10.4477153,17 10,17.4477153 10,18 C10,18.5522847 10.4477153,19 11,19 L23,19 C23.5522847,19 24,18.5522847 24,18 C24,17.4477153 23.5522847,17 23,17 Z M10.9982032,13 L19.0017968,13 C19.5530892,13 20,12.5522847 20,12 C20,11.4477153 19.5530892,11 19.0017968,11 L10.9982032,11 C10.4469108,11 10,11.4477153 10,12 C10,12.5522847 10.4469108,13 10.9982032,13 Z" id="形状" fill-rule="nonzero"></path>
            </g>
        </g>
    </g>
</svg>