<?xml version="1.0" encoding="UTF-8"?>
<svg width="32px" height="32px" viewBox="0 0 32 32" version="1.1" xmlns="http://www.w3.org/2000/svg" xmlns:xlink="http://www.w3.org/1999/xlink">
    <!-- Generator: Sketch 52.5 (67469) - http://www.bohemiancoding.com/sketch -->
    <title>pipelining_icon_patching</title>
    <desc>Created with Sketch.</desc>
    <g id="Page-1" stroke="none" stroke-width="1" fill="none" fill-rule="evenodd" opacity="0.65">
        <g id="Desktop-HD" transform="translate(-575.000000, -449.000000)" fill="#000000">
            <g id="打补丁icon" transform="translate(591.000000, 465.000000) scale(-1, 1) translate(-591.000000, -465.000000) translate(575.000000, 449.000000)">
                <rect id="矩形" opacity="0" x="0" y="0" width="32" height="32"></rect>
                <path d="M30.8125,29.51239 L21.25,19.8828103 L26.875,14.2183516 C27.25,13.840721 27.4375,13.2742752 27.4375,12.7078293 C27.4375,12.1413834 27.0625,11.5749375 26.6875,11.3861223 C23.875,9.12033879 20.125,8.36507763 16.75,9.30915408 L11.6875,4.96640242 C11.6875,3.83351068 11.3125,2.70061895 10.75,1.7565425 C10,0.812466051 8.5,0.812466051 7.75,1.56772721 L1.5625,7.79863176 C1.1875,8.17626234 1,8.74270821 1,9.30915408 C1,9.87559994 1.375,10.4420458 1.75,10.6308611 C2.875,11.197307 3.8125,11.5749375 4.9375,11.5749375 L9.0625,16.8617657 C8.125,20.2604409 8.875,24.0367467 11.125,26.868976 C11.6875,27.4354219 12.25,27.6242372 12.8125,27.6242372 C13.375,27.6242372 13.75,27.4354219 14.125,27.0577913 L19.9375,21.2045173 L29.5,30.8340971 C29.6875,31.0229124 29.875,31.0229124 30.25,31.0229124 C30.625,31.0229124 30.8125,31.0229124 31,30.8340971 C31,30.4564665 31,29.8900206 30.8125,29.51239 Z M12.8125,25.7360843 C10.75,23.2814855 10.1875,20.0716256 11.125,17.0505809 L11.3125,16.4841351 L6.25,10.0644152 L5.6875,9.87559994 L5.3125,9.87559994 C4.375,9.87559994 3.625,9.49796936 2.875,9.12033879 L9.0625,2.88943423 C9.625,3.64469539 9.8125,4.58877184 9.8125,5.53284829 L9.8125,6.09929416 L16.5625,11.5749375 L17.125,11.3861223 C20.125,10.4420458 23.3125,11.0084917 25.75,13.0854599 L12.8125,25.7360843 Z" id="形状" fill-rule="nonzero"></path>
            </g>
        </g>
    </g>
</svg>