<?xml version="1.0" encoding="UTF-8"?>
<svg width="30px" height="30px" viewBox="0 0 30 30" version="1.1" xmlns="http://www.w3.org/2000/svg" xmlns:xlink="http://www.w3.org/1999/xlink">
    <!-- Generator: Sketch 52.5 (67469) - http://www.bohemiancoding.com/sketch -->
    <title>静态扫描icon</title>
    <desc>Created with Sketch.</desc>
    <g id="Page-1" stroke="none" stroke-width="1" fill="none" fill-rule="evenodd" opacity="0.65">
        <g id="Desktop-HD" transform="translate(-184.000000, -450.000000)" fill="#000000">
            <g id="静态扫描icon" transform="translate(183.000000, 449.000000)">
                <rect id="矩形" opacity="0" x="0" y="0" width="32" height="32"></rect>
                <path d="M19,26 C19,25.4477153 18.5488178,25 17.9922563,25 L3.01548743,25 L3.01548743,7 L17.9882253,7 C18.5447868,7 18.995969,6.55228475 18.995969,6 C18.995969,5.44771525 18.5447868,5 17.9882253,5 L3.00774371,5 C2,5 1,6 1,7 L1,25 C1,26 2,27 3.00774371,27 C3.67957286,27 8.67441038,27 17.9922563,27 C18.5488178,27 19,26.5522847 19,26 Z M28.9804241,5 L26.0195759,5 C25.4564797,5 25,5.44771525 25,6 C25,6.55228475 25.4564797,7 26.0195759,7 L28.9608483,7 L28.9608483,25 L26.0399674,25 C25.4768712,25 25.0203915,25.4477153 25.0203915,26 C25.0203915,26.5522847 25.4768712,27 26.0399674,27 L28.9804241,27 C30,27 31,26 31,25 L31,7 C31,6 30,5 28.9804241,5 Z M22.9947142,28.9999999 L22.9947142,2.99999999 L24.9935948,2.99999999 C25.5430977,2.99999999 25.9885578,2.55228474 25.9885578,1.99999999 C25.9885578,1.44771525 25.5430977,1 24.9935948,1 L18.994963,1 C18.4454601,1 18,1.44771525 18,1.99999999 C18,2.55228474 18.4454601,2.99999999 18.994963,2.99999999 L21.0047882,2.99999999 L21.0047882,28.9999999 L18.994963,28.9999999 C18.4454601,28.9999999 18,29.4477151 18,29.9999999 C18,30.5522846 18.4454601,30.9999999 18.994963,30.9999999 L25.0045394,30.9999999 C25.5540423,31.000276 25.9997251,30.5527846 25.9999999,30.0004999 C26.0002746,29.4482151 25.5550373,29.000276 25.0055344,28.9999999 L22.9947142,28.9999999 Z" id="形状" fill-rule="nonzero"></path>
            </g>
        </g>
    </g>
</svg>