<?xml version="1.0" encoding="UTF-8"?>
<svg width="30px" height="25px" viewBox="0 0 30 25" version="1.1" xmlns="http://www.w3.org/2000/svg" xmlns:xlink="http://www.w3.org/1999/xlink">
    <!-- Generator: Sketch 52.5 (67469) - http://www.bohemiancoding.com/sketch -->
    <title>性能测试icon</title>
    <desc>Created with Sketch.</desc>
    <g id="Page-1" stroke="none" stroke-width="1" fill="none" fill-rule="evenodd" opacity="0.65">
        <g id="Desktop-HD" transform="translate(-464.000000, -452.000000)" fill="#000000">
            <g id="性能测试icon" transform="translate(463.000000, 449.000000)">
                <rect id="矩形" opacity="0" x="0" y="0" width="32" height="32"></rect>
                <path d="M15.9999541,3 C7.72855086,3 1,9.83445715 1,18.236051 C1,21.6554561 2.08963953,24.8854989 4.14999037,27.5779268 C4.38463659,27.884891 4.76268441,28.041385 5.14172688,27.988459 C5.52076935,27.935533 5.8432209,27.6812278 5.98761715,27.3213376 C6.1320134,26.9614474 6.07641713,26.5506482 5.84177091,26.243684 C4.08360755,23.9573724 3.13306764,21.1371429 3.14285059,18.236051 C3.14285059,11.0348403 8.91033296,5.17657871 15.9999541,5.17657871 C23.0895753,5.17657871 28.8570577,11.0348403 28.8570577,18.236051 C28.8570577,21.1657259 27.9238463,23.9354223 26.1570659,26.243684 C25.9822782,26.4711837 25.9039132,26.7600359 25.9393005,27.0463647 C25.9746878,27.3326936 26.1209117,27.5929082 26.3456368,27.7694657 C26.5693967,27.9475748 26.8539237,28.0275296 27.135991,27.991563 C27.4180583,27.9555964 27.6743001,27.8066876 27.8477751,27.5779268 C29.9013055,24.9117728 31.0116205,21.621168 30.9999083,18.236051 C30.9999083,9.83445715 24.2713574,3 15.9999541,3 Z M16,10 C16.5522847,10 17,9.55228475 17,9 L17,7 C17,6.44771525 16.5522847,6 16,6 C15.4477153,6 15,6.44771525 15,7 L15,9 C15,9.55228475 15.4477153,10 16,10 Z M6.713445,13.1729512 C6.39087246,12.9744865 5.97179701,12.9446137 5.61715995,13.0948051 C5.26252289,13.2449966 5.02746043,13.5519017 5.00224571,13.8976569 C4.97703099,14.2434121 5.16558421,14.5742621 5.49549357,14.7631476 L7.30172207,15.8354272 C7.54107809,15.9780953 7.83511161,16.0309764 8.118846,15.9823844 C8.40258039,15.9337925 8.65265667,15.787728 8.81381204,15.5764688 C9.15005135,15.1373323 9.01837426,14.5413766 8.5196735,14.2452308 L6.713445,13.1729512 Z M26.7205412,13.3117841 C26.5223269,13.130395 26.2415571,13.0190386 25.9400251,13.0022229 C25.638493,12.9854071 25.3409106,13.0645101 25.1127712,13.2221224 L23.3921952,14.410366 C22.9170712,14.7384904 22.8665663,15.310628 23.2793892,15.6882712 C23.6922121,16.0659143 24.4120353,16.1060572 24.8871592,15.7779328 L26.6077353,14.5896893 C26.8359462,14.4321424 26.9760469,14.208978 26.9972033,13.969311 C27.0183597,13.729644 26.918838,13.4931163 26.7205412,13.3117841 Z M18.981,23.744732 C18.981,23.6568398 18.99,23.5711177 18.97,23.4821404 L16.97,14.8014258 C16.959,14.7525968 16.93,14.7167888 16.913,14.6712151 C16.886,14.5985141 16.862,14.5268982 16.821,14.4617929 C16.786,14.4053682 16.742,14.3619646 16.699,14.3142207 C16.652,14.2621364 16.608,14.2122223 16.552,14.1709889 C16.497,14.1308406 16.436,14.1069686 16.375,14.0798414 C16.33,14.0592247 16.293,14.0255869 16.243,14.0125659 C16.227,14.0082255 16.212,14.013651 16.196,14.0103957 C16.132,13.9962895 16.067,14.0006299 16,14.0006299 C15.934,14.0006299 15.869,13.9962895 15.805,14.0103957 C15.789,14.013651 15.773,14.0082255 15.757,14.0125659 C15.706,14.026672 15.668,14.0613949 15.621,14.0830967 C15.562,14.1102239 15.504,14.1330108 15.45,14.1709889 C15.391,14.2133074 15.345,14.2664768 15.296,14.3196462 C15.254,14.3652199 15.213,14.4075384 15.179,14.4617929 C15.138,14.5268982 15.114,14.597429 15.087,14.67013 C15.07,14.7157038 15.041,14.7525968 15.029,14.8014258 L13.029,23.4821404 C13.008,23.5711177 13.018,23.6579249 13.018,23.744732 L13,23.744732 C13,23.792476 13.011,23.8358795 13.013,23.8836235 L13.017,23.9281121 C13.107,25.6360427 14.404,27 16,27 C17.596,27 18.893,25.6360427 18.983,23.9281121 L18.987,23.8836235 C18.989,23.8369646 19,23.792476 19,23.744732 L18.981,23.744732 Z M16,25 C15.4700241,24.9967314 15.0330476,24.5792836 15,24.0446904 L16,20 L17,24.0436654 C16.9679498,24.5788922 16.5305431,24.9971994 16,25 Z" id="形状" fill-rule="nonzero"></path>
            </g>
        </g>
    </g>
</svg>