<?xml version="1.0" encoding="UTF-8"?>
<svg width="28px" height="32px" viewBox="0 0 28 32" version="1.1" xmlns="http://www.w3.org/2000/svg" xmlns:xlink="http://www.w3.org/1999/xlink">
    <!-- Generator: Sketch 52.5 (67469) - http://www.bohemiancoding.com/sketch -->
    <title>包管理icon</title>
    <desc>Created with Sketch.</desc>
    <g id="Page-1" stroke="none" stroke-width="1" fill="none" fill-rule="evenodd" opacity="0.65">
        <g id="Desktop-HD" transform="translate(-633.000000, -448.000000)" fill="#000000">
            <g id="包管理icon" transform="translate(631.000000, 448.000000)">
                <rect id="矩形" opacity="0" x="0" y="0" width="32" height="32"></rect>
                <path d="M22.1,10.968 L15.897,14.57 L9.801,11.079 C8.642,10.419 7.653,12.158 8.812,12.817 L15.022,16.373 L15.022,24.396 C15.022,24.9482847 15.4697153,25.396 16.022,25.396 C16.5742847,25.396 17.022,24.9482847 17.022,24.396 L17.022,16.333 C17.022,16.3 17.006,16.272 17.003,16.239 L23.089,12.705 C24.248,12.047 23.259,10.308 22.1,10.968 Z" id="路径"></path>
                <path d="M28.3943048,6.68280817 L17.6218445,0.437309003 C16.6174574,-0.145051118 15.3739243,-0.145051118 14.3695372,0.437309003 L3.60461533,6.68280817 C2.60942517,7.26204161 1.9987573,8.32035783 2.00000014,9.463682 L2.00000014,22.7195006 C2.00000014,23.8789981 2.62676929,24.9488932 3.64015379,25.519575 L14.4093833,31.583736 C15.395194,32.1394732 16.6037261,32.1394732 17.5895368,31.583736 L28.3587663,25.519575 C29.3743749,24.9464424 30.0010548,23.8772749 29.9999969,22.7195006 L29.9999969,9.463682 C30.0010156,8.3201398 29.389909,7.26177352 28.3943048,6.68280817 Z M27.846151,22.7195006 C27.846151,23.1056442 27.6372279,23.462987 27.2990741,23.6528588 L16.5298446,29.7170198 C16.2014478,29.9025598 15.7985492,29.9025598 15.4701524,29.7170198 L4.7009229,23.6528588 C4.36238671,23.4618146 4.15349339,23.1054254 4.15384604,22.7195006 L4.15384604,9.463682 C4.15384604,9.0818052 4.35738448,8.72979585 4.68907675,8.53672406 L15.4539986,2.29122489 C15.7885309,2.09708123 16.2028508,2.09708123 16.5373831,2.29122489 L27.3109203,8.53779075 C27.6426126,8.72872916 27.846151,9.0818052 27.846151,9.463682 L27.846151,22.7195006 Z" id="形状" fill-rule="nonzero"></path>
            </g>
        </g>
    </g>
</svg>