<?xml version="1.0" encoding="UTF-8"?>
<svg width="16px" height="17px" viewBox="0 0 16 17" version="1.1" xmlns="http://www.w3.org/2000/svg" xmlns:xlink="http://www.w3.org/1999/xlink">
    <!-- Generator: Sketch 52.5 (67469) - http://www.bohemiancoding.com/sketch -->
    <title>release_icon</title>
    <desc>Created with Sketch.</desc>
    <g id="灰度发布-iOS" stroke="none" stroke-width="1" fill="none" fill-rule="evenodd" opacity="0.65">
        <g id="新发布_step1" transform="translate(-24.000000, -455.000000)">
            <g id="左侧栏">
                <g id="列表" transform="translate(0.000000, 64.000000)">
                    <g id="发布" transform="translate(24.000000, 391.359928)">
                        <rect id="Rectangle-path" fill="#D6B6B6" fill-rule="nonzero" opacity="0" x="0" y="0" width="16" height="16"></rect>
                        <path d="M6.56499888,14.6444722 C6.56498881,14.6430912 6.56498377,14.6417091 6.56498377,14.6403258 C6.56498377,14.6390679 6.56498794,14.637811 6.56499627,14.636555 L6.56499627,10.9098077 L7.25786535,10.0106903 C7.26899025,9.99144051 7.28186514,9.97381566 7.29461503,9.95619081 L13.2818139,2.37225562 L2.08828452,8.19308087 L5.21800778,9.22119709 C5.27725727,9.24132192 5.33650677,9.26144674 5.39575626,9.28157157 C5.40683025,9.28503606 5.49298287,9.31366965 5.58661005,9.38024755 C5.74142656,9.48169194 5.84366493,9.65672256 5.84366493,9.85567917 C5.84366493,9.99417607 5.7941225,10.121079 5.71178914,10.2196364 C5.66194495,10.28453 5.60116473,10.3298368 5.53576465,10.3607792 C5.45784067,10.4009779 5.36941096,10.4236743 5.27566979,10.4236743 C5.25505724,10.4236743 5.23470063,10.422576 5.21465535,10.4204348 C5.05787435,10.4167636 4.93338521,10.3768122 4.93338521,10.3768122 L0.401923935,8.88907493 C0.179425837,8.81707554 0.02105219,8.60907732 0.00192735343,8.3658294 C-0.0173224821,8.12108149 0.109051438,7.89070846 0.317049661,7.78183439 L15.1761727,0.0619003586 C15.4592953,-0.083723397 15.8001674,0.0362755776 15.9409161,0.330773061 C15.9952907,0.445897077 16.0129155,0.578770942 15.9905407,0.706769848 L13.9073085,12.6057932 C13.856184,12.8937907 13.612936,13.1001639 13.3329384,13.093789 C13.267314,13.095414 13.2033145,13.0857891 13.1409401,13.0666642 L7.70423653,11.2810545 L7.70423653,14.6426508 C7.70423653,14.970648 7.44823872,15.2377707 7.1346164,15.2377707 C6.81995283,15.2377707 6.56593852,14.9716363 6.56499888,14.6444722 Z M12.9025671,11.7434255 L14.4833036,2.72275262 L8.50260471,10.2986879 L12.9025671,11.7434255 Z" id="pub" fill="#FFFFFF"></path>
                    </g>
                </g>
            </g>
        </g>
    </g>
</svg>