<?xml version="1.0" encoding="UTF-8"?>
<svg width="18px" height="18px" viewBox="0 0 18 18" version="1.1" xmlns="http://www.w3.org/2000/svg" xmlns:xlink="http://www.w3.org/1999/xlink">
    <!-- Generator: Sketch 52.5 (67469) - http://www.bohemiancoding.com/sketch -->
    <title>Rectangle-path</title>
    <desc>Created with Sketch.</desc>
    <g id="Page-1" stroke="none" stroke-width="1" fill="none" fill-rule="evenodd" opacity="0.65">
        <g id="需求" transform="translate(-24.000000, -283.000000)">
            <g id="左侧栏">
                <g id="列表" transform="translate(0.000000, 64.000000)">
                    <g id="需求" transform="translate(24.000000, 219.000000)">
                        <rect id="Rectangle-path" fill="#000000" fill-rule="nonzero" opacity="0" x="0" y="0" width="18" height="18"></rect>
                        <path d="M11,11.99904 L11,14.00104 C11,14.55656 11.44752,15 11.99904,15 L14.00096,15 C14.55136,15.00144 14.99864,14.5564 15,14.00608 C15,14.0044 15,14.00272 15,14.00104 L15,11.99904 C15.00136,11.44872 14.55632,11.00144 14.006,11 C14.00432,11 14.00264,11 14.00104,11 L11.99904,11 C11.44864,10.99864 11.00136,11.44368 11,11.994 C11,11.99568 11,11.99736 11,11.99904 Z M10,11.99808 C10.00112,10.89504 10.89496,10.00112 11.998,10 L14.002,10 C15.10504,10.00112 15.99888,10.89504 16,11.99808 L16,14.002 C15.99888,15.10504 15.10504,15.99896 14.002,16 L11.998,16 C10.89496,15.99896 10.00112,15.10504 10,14.002 L10,11.99808 Z M11,3.99904 L11,6.00104 C11,6.55656 11.44752,7 11.99904,7 L14.00096,7 C14.55136,7.00144 14.99864,6.5564 15,6.00608 C15,6.0044 15,6.00272 15,6.00104 L15,3.99904 C15.00136,3.44872 14.55632,3.00144 14.006,3 C14.00432,3 14.00264,3 14.00104,3 L11.99904,3 C11.44864,2.99864 11.00136,3.44368 11,3.994 C11,3.99568 11,3.99736 11,3.99904 Z M10,3.99808 C10.00112,2.89504 10.89496,2.00112 11.998,2 L14.002,2 C15.10504,2.00112 15.99888,2.89504 16,3.99808 L16,6.002 C15.99888,7.10504 15.10504,7.99896 14.002,8 L11.998,8 C10.89496,7.99896 10.00112,7.10504 10,6.002 L10,3.99808 Z M3,11.99904 L3,14.00104 C3,14.55656 3.44752,15 3.99904,15 L6.00104,15 C6.55136,15.00144 6.99864,14.5564 7,14.00608 C7,14.0044 7,14.00272 7,14.00104 L7,11.99904 C7.00136,11.44872 6.55632,11.00144 6.006,11 C6.00432,11 6.00264,11 6.00096,11 L3.99904,11 C3.44864,10.99864 3.00136,11.44368 3,11.994 C3,11.99568 3,11.99736 3,11.99904 Z M2,11.99808 C2.00112,10.89504 2.89496,10.00112 3.998,10 L6.002,10 C7.10504,10.00112 7.99888,10.89504 8,11.99808 L8,14.002 C7.99888,15.10504 7.10504,15.99896 6.002,16 L3.998,16 C2.89496,15.99896 2.00112,15.10504 2,14.002 L2,11.99808 Z M3,3.99904 L3,6.00104 C3,6.55656 3.44752,7 3.99904,7 L6.00104,7 C6.55136,7.00144 6.99864,6.5564 7,6.00608 C7,6.0044 7,6.00272 7,6.00104 L7,3.99904 C7.00136,3.44872 6.55632,3.00144 6.006,3 C6.00432,3 6.00264,3 6.00096,3 L3.99904,3 C3.44864,2.99864 3.00136,3.44368 3,3.994 C3,3.99568 3,3.99736 3,3.99904 Z M2,3.99808 C2.00112,2.89504 2.89496,2.00112 3.998,2 L6.002,2 C7.10504,2.00112 7.99888,2.89504 8,3.99808 L8,6.002 C7.99888,7.10504 7.10504,7.99896 6.002,8 L3.998,8 C2.89496,7.99896 2.00112,7.10504 2,6.002 L2,3.99808 Z" id="Fill-1" fill="#FFFFFF"></path>
                    </g>
                </g>
            </g>
        </g>
    </g>
</svg>